<?xml version="1.0" encoding="utf-8"?>
<!-- Generator: Adobe Illustrator 18.1.0, SVG Export Plug-In . SVG Version: 6.00 Build 0)  -->
<svg version="1.1" id="Layer_1" xmlns="http://www.w3.org/2000/svg" xmlns:xlink="http://www.w3.org/1999/xlink" x="0px" y="0px"
	 viewBox="0 0 150 150" enable-background="new 0 0 150 150" xml:space="preserve">
<g>
	<path fill="#70C1C4" d="M90.1,138.8c-0.4,0.1-0.9,0.2-1.3,0.3C89.2,139,89.6,138.9,90.1,138.8z"/>
	<path fill="#70C1C4" d="M93.1,138c-0.4,0.1-0.9,0.2-1.3,0.4C92.2,138.3,92.6,138.2,93.1,138z"/>
	<path fill="#70C1C4" d="M98.8,136.2c-0.4,0.2-0.9,0.3-1.3,0.5C98,136.5,98.4,136.3,98.8,136.2z"/>
	<path fill="#70C1C4" d="M96,137.2c-0.4,0.1-0.9,0.3-1.3,0.4C95.1,137.5,95.5,137.3,96,137.2z"/>
	<path fill="#70C1C4" d="M87,139.4c-0.4,0.1-0.9,0.2-1.3,0.2C86.1,139.5,86.6,139.5,87,139.4z"/>
	<path fill="#70C1C4" d="M70.3,140c-0.3,0-0.5,0-0.8-0.1C69.8,140,70.1,140,70.3,140z"/>
	<path fill="#70C1C4" d="M101.6,135c-0.4,0.2-0.9,0.4-1.3,0.6C100.8,135.4,101.2,135.2,101.6,135z"/>
	<path fill="#70C1C4" d="M83.8,139.8c-0.4,0-0.8,0.1-1.2,0.1C83,139.9,83.4,139.9,83.8,139.8z"/>
	<path fill="#70C1C4" d="M73.4,140.2c-0.3,0-0.6,0-0.8,0C72.8,140.2,73.1,140.2,73.4,140.2z"/>
	<path fill="#70C1C4" d="M80.5,140.1c-0.4,0-0.7,0.1-1.1,0.1C79.8,140.2,80.2,140.2,80.5,140.1z"/>
	<path fill="#70C1C4" d="M116.8,125.6c-0.4,0.3-0.8,0.6-1.2,0.9C116,126.3,116.4,126,116.8,125.6z"/>
	<path fill="#70C1C4" d="M121.8,121c1-1.1,2-2.2,3-3.3C123.8,118.8,122.8,119.9,121.8,121z"/>
	<path fill="#70C1C4" d="M121.2,121.7c-0.4,0.4-0.8,0.8-1.2,1.1C120.4,122.4,120.8,122,121.2,121.7z"/>
	<path fill="#70C1C4" d="M66.8,139.6c-0.2,0-0.4-0.1-0.6-0.1C66.4,139.5,66.6,139.6,66.8,139.6z"/>
	<path fill="#70C1C4" d="M33,108h-1.5c-1.2,0-2.2-1.1-2.2-2.3c0-0.1,0-0.3,0-0.4l-0.4,0l0.5-0.6c0.3-0.9,1.1-1.7,2-1.7h0.2l8.7-5.3
		c-1.5-0.4-2.3-1.6-2.3-3.2V44.9c0-2,1.1-3.9,3.1-3.9h72.5c2,0,3.4,2,3.4,3.9v0.5l22.2,37.3c0.2-1.9,0.3-3.8,0.3-5.7
		c0-35-28.3-63.3-63.3-63.3S13,42,13,77c0,22.2,11.5,41.8,28.8,53.1c-7.6-11-10.5-20.8-10.5-20.8L33,108z"/>
	<path fill="#70C1C4" d="M114.5,127.5c-0.4,0.3-0.8,0.6-1.2,0.9C113.7,128.1,114.1,127.8,114.5,127.5z"/>
	<path fill="#70C1C4" d="M109.6,130.8c-0.4,0.3-0.8,0.5-1.2,0.7C108.7,131.3,109.2,131.1,109.6,130.8z"/>
	<path fill="#70C1C4" d="M107,132.4c-0.4,0.2-0.8,0.5-1.3,0.7C106.2,132.8,106.6,132.6,107,132.4z"/>
	<path fill="#70C1C4" d="M104.4,133.7c-0.4,0.2-0.9,0.4-1.3,0.6C103.5,134.2,103.9,134,104.4,133.7z"/>
	<path fill="#70C1C4" d="M112.1,129.2c-0.4,0.3-0.8,0.5-1.2,0.8C111.2,129.8,111.7,129.5,112.1,129.2z"/>
	<path fill="#70C1C4" d="M119,123.7c-0.4,0.3-0.8,0.7-1.2,1C118.2,124.4,118.6,124,119,123.7z"/>
	<path fill="#70C1C4" d="M133.8,103.4c-0.2,0.5-0.5,1.1-0.8,1.6C133.3,104.5,133.6,103.9,133.8,103.4z"/>
	<path fill="#70C1C4" d="M135,100.7c-0.2,0.6-0.4,1.1-0.7,1.6C134.6,101.8,134.8,101.2,135,100.7z"/>
	<path fill="#70C1C4" d="M137.8,92.1c-0.1,0.6-0.3,1.2-0.5,1.8C137.5,93.3,137.6,92.7,137.8,92.1z"/>
	<path fill="#70C1C4" d="M136.1,97.9c-0.2,0.6-0.4,1.1-0.6,1.7C135.7,99,135.9,98.4,136.1,97.9z"/>
	<path fill="#70C1C4" d="M132.5,106.1c-0.3,0.5-0.5,1-0.8,1.6C132,107.1,132.3,106.6,132.5,106.1z"/>
	<path fill="#70C1C4" d="M137,95c-0.2,0.6-0.4,1.2-0.5,1.7C136.6,96.1,136.8,95.6,137,95z"/>
	<path fill="#70C1C4" d="M126.2,115.9c-0.4,0.5-0.8,1-1.2,1.5C125.5,116.9,125.8,116.4,126.2,115.9z"/>
	<path fill="#70C1C4" d="M127.9,113.6c-0.3,0.5-0.7,1-1.1,1.5C127.2,114.6,127.6,114.1,127.9,113.6z"/>
	<path fill="#70C1C4" d="M64,139.1c-0.3-0.1-0.6-0.1-0.9-0.2C63.4,139,63.7,139,64,139.1z"/>
	<path fill="#70C1C4" d="M131.1,108.7c-0.3,0.5-0.6,1-0.9,1.5C130.5,109.7,130.8,109.2,131.1,108.7z"/>
	<path fill="#70C1C4" d="M129.6,111.2c-0.3,0.5-0.6,1-1,1.5C128.9,112.2,129.2,111.7,129.6,111.2z"/>
	<path fill="#70C1C4" d="M52,135.5c-0.2-0.1-0.5-0.2-0.7-0.3C51.6,135.3,51.8,135.4,52,135.5z"/>
	<path fill="#70C1C4" d="M55.1,136.6c-0.3-0.1-0.6-0.2-0.9-0.3C54.5,136.4,54.8,136.5,55.1,136.6z"/>
	<path fill="#70C1C4" d="M49.2,134.2c-0.3-0.1-0.6-0.3-0.9-0.5C48.6,133.9,48.9,134.1,49.2,134.2z"/>
	<path fill="#70C1C4" d="M57.7,137.5c-0.3-0.1-0.6-0.2-0.8-0.3C57.2,137.3,57.5,137.4,57.7,137.5z"/>
	<path fill="#70C1C4" d="M138.4,89.1c-0.1,0.6-0.2,1.2-0.4,1.8C138.2,90.3,138.3,89.7,138.4,89.1z"/>
	<path fill="#70C1C4" d="M61,138.4c-0.2-0.1-0.4-0.1-0.7-0.2C60.6,138.3,60.8,138.4,61,138.4z"/>
	<path fill="#70C1C4" d="M138.9,86.1c-0.1,0.6-0.2,1.3-0.3,1.9C138.7,87.3,138.9,86.7,138.9,86.1z"/>
	<path fill="#70C1C4" d="M139.3,83c-0.1,0.6-0.1,1.3-0.2,1.9C139.2,84.3,139.2,83.6,139.3,83z"/>
	<path fill="#70C1C4" d="M46.7,133c-0.3-0.2-0.6-0.3-0.9-0.5C46.1,132.7,46.4,132.8,46.7,133z"/>
	<path fill="#70C1C4" d="M43.7,131.2c-0.3-0.2-0.5-0.3-0.7-0.5C43.2,130.9,43.4,131.1,43.7,131.2z"/>
	<path fill="#6EAEA4" d="M125,117.4c0.4-0.5,0.8-1,1.2-1.5c0.2-0.3,0.4-0.5,0.6-0.8c0.4-0.5,0.7-1,1.1-1.5c0.2-0.3,0.4-0.6,0.7-0.9
		c0.3-0.5,0.7-1,1-1.5c0.2-0.3,0.4-0.7,0.6-1c0.3-0.5,0.6-1,0.9-1.5c0.2-0.3,0.4-0.7,0.6-1c0.3-0.5,0.6-1,0.8-1.6
		c0.2-0.4,0.4-0.7,0.5-1.1c0.3-0.5,0.5-1.1,0.8-1.6c0.2-0.4,0.3-0.7,0.5-1.1c0.2-0.5,0.5-1.1,0.7-1.6c0.2-0.4,0.3-0.7,0.4-1.1
		c0.2-0.6,0.4-1.1,0.6-1.7c0.1-0.4,0.3-0.8,0.4-1.1c0.2-0.6,0.4-1.1,0.5-1.7c0.1-0.4,0.2-0.8,0.3-1.2c0.2-0.6,0.3-1.2,0.5-1.8
		c0.1-0.4,0.2-0.8,0.3-1.2c0.1-0.6,0.3-1.2,0.4-1.8c0.1-0.4,0.1-0.8,0.2-1.2c0.1-0.6,0.2-1.2,0.3-1.9c0.1-0.4,0.1-0.8,0.1-1.1
		c0.1-0.6,0.2-1.3,0.2-1.9c0-0.1,0-0.2,0-0.2l-0.1,0L117,45.4v49.1c0,1.8-1.2,3.1-2.9,3.3l6.4,5.2h1.1c1.2,0,2.2,1.3,2.2,2.5
		s-1,2.5-2.2,2.5H33l-1.7,1.2c0,0,2.9,9.9,10.5,20.9c0,0,0,0,0,0c0.4,0.2,0.7,0.4,1.1,0.7c0.2,0.2,0.5,0.3,0.7,0.5
		c0.7,0.4,1.5,0.9,2.2,1.3c0.3,0.2,0.6,0.3,0.9,0.5c0.5,0.3,1,0.5,1.6,0.8c0.3,0.2,0.6,0.3,0.9,0.5c0.7,0.3,1.4,0.6,2.1,0.9
		c0.2,0.1,0.5,0.2,0.7,0.3c0.7,0.3,1.4,0.6,2.1,0.8c0.3,0.1,0.6,0.2,0.9,0.3c0.6,0.2,1.2,0.4,1.8,0.6c0.3,0.1,0.6,0.2,0.8,0.3
		c0.9,0.3,1.7,0.5,2.6,0.7c0.2,0.1,0.4,0.1,0.7,0.2c0.7,0.2,1.4,0.3,2.1,0.5c0.3,0.1,0.6,0.1,0.9,0.2c0.7,0.1,1.5,0.3,2.2,0.4
		c0.2,0,0.4,0.1,0.6,0.1c0.9,0.1,1.9,0.3,2.8,0.4c0.3,0,0.5,0,0.8,0.1c0.7,0.1,1.5,0.1,2.2,0.2c0.3,0,0.6,0,0.8,0
		c1,0,1.9,0.1,2.9,0.1c1.1,0,2.1,0,3.2-0.1c0.4,0,0.7-0.1,1.1-0.1c0.7,0,1.4-0.1,2.1-0.2c0.4,0,0.8-0.1,1.2-0.1
		c0.6-0.1,1.2-0.1,1.9-0.2c0.4-0.1,0.9-0.1,1.3-0.2c0.6-0.1,1.2-0.2,1.7-0.3c0.4-0.1,0.9-0.2,1.3-0.3c0.6-0.1,1.1-0.2,1.7-0.4
		c0.4-0.1,0.9-0.2,1.3-0.4c0.5-0.1,1.1-0.3,1.6-0.5c0.4-0.1,0.9-0.3,1.3-0.4c0.5-0.2,1-0.3,1.5-0.5c0.4-0.2,0.9-0.3,1.3-0.5
		c0.5-0.2,1-0.4,1.5-0.6c0.4-0.2,0.9-0.4,1.3-0.6c0.5-0.2,1-0.4,1.4-0.6c0.4-0.2,0.9-0.4,1.3-0.6c0.5-0.2,0.9-0.5,1.4-0.7
		c0.4-0.2,0.9-0.5,1.3-0.7c0.4-0.2,0.9-0.5,1.3-0.8c0.4-0.2,0.8-0.5,1.2-0.7c0.4-0.3,0.8-0.5,1.3-0.8c0.4-0.3,0.8-0.5,1.2-0.8
		c0.4-0.3,0.8-0.6,1.2-0.9c0.4-0.3,0.8-0.6,1.2-0.9c0.4-0.3,0.8-0.6,1.1-0.9c0.4-0.3,0.8-0.6,1.2-0.9c0.4-0.3,0.7-0.6,1.1-0.9
		c0.4-0.3,0.8-0.7,1.2-1c0.3-0.3,0.6-0.6,1-0.9c0.4-0.4,0.8-0.8,1.2-1.1c0.2-0.2,0.4-0.5,0.6-0.7c1-1.1,2-2.2,3-3.3
		C124.9,117.6,125,117.5,125,117.4z"/>
	<path fill="#DEDED8" d="M28.9,105.2l0.4,0c0-0.1,0-0.2,0.1-0.3L28.9,105.2z"/>
	<path fill="#DEDED8" d="M41.1,98c-0.4,0-0.7-0.3-1-0.4l-8.5,5.4h88.8l-6.3-5.2c-0.2,0-0.3,0.2-0.5,0.2H41.1z"/>
	<path fill="#FFFFFF" d="M113.6,41H41.1c-2,0-3.1,2-3.1,3.9v49.5c0,1.6,0.9,3,2.3,3.4c0.3,0.1,0.4,0.1,0.8,0.1h72.5
		c0.2,0,0.2,0,0.4,0c1.7-0.3,2.9-1.7,2.9-3.5V45.4v-0.5C117,43,115.6,41,113.6,41z M114,91c0,1.7-1.3,3-3.1,3H44.6
		c-1.8,0-3.6-1.3-3.6-3V47.7c0-1.7,1.8-2.7,3.6-2.7h66.4c1.8,0,3.1,1,3.1,2.7V91z"/>
	<path fill="#5D768B" d="M110.9,45H44.6c-1.8,0-3.6,1-3.6,2.7V91c0,1.7,1.8,3,3.6,3h66.4c1.8,0,3.1-1.3,3.1-3V47.7
		C114,46,112.7,45,110.9,45z M76,55.2c0-0.1,0.2-0.3,0.2-0.4c0-0.1,0.1-0.1,0.1-0.2c0-0.1,0.1-0.1,0.1-0.2c0-0.1,0.1-0.1,0.1-0.2
		c0,0,0.1-0.1,0.1-0.1c0-0.1,0.2-0.1,0.2-0.2c0,0,0.2-0.1,0.2-0.1c0,0,0,0,0,0c0-0.4,0.7-0.6,1.2-0.6c1.1,0,1.8,0.9,1.8,2v3.7v10
		c0,1.1-0.9,2-2,2c-1.1,0-2-0.9-2-2V55.2z M89.2,75.9C89.2,75.9,89.2,75.9,89.2,75.9c-0.1,0.2-0.2,0.3-0.2,0.4
		c-0.1,0.2-0.2,0.4-0.4,0.6c-0.1,0.1-0.2,0.2-0.2,0.4c-0.2,0.3-0.4,0.5-0.6,0.8c-0.1,0.1-0.1,0.2-0.2,0.3c-0.2,0.2-0.3,0.4-0.5,0.6
		c-0.1,0.1-0.2,0.2-0.3,0.3c-0.2,0.2-0.4,0.4-0.6,0.5c-0.1,0.1-0.1,0.1-0.2,0.2c-0.3,0.2-0.5,0.4-0.8,0.6c-0.1,0.1-0.2,0.1-0.3,0.2
		c-0.2,0.1-0.4,0.3-0.7,0.4c-0.1,0-0.2,0.1-0.3,0.1c-0.3,0.2-0.6,0.3-0.9,0.5c-0.1,0-0.2,0.1-0.3,0.1c-0.3,0.1-0.5,0.2-0.8,0.3
		c-0.1,0-0.2,0.1-0.3,0.1c-0.3,0.1-0.7,0.2-1,0.3c-0.1,0-0.1,0-0.2,0c-0.3,0.1-0.6,0.1-0.9,0.1c-0.1,0-0.2,0-0.3,0
		c-0.4,0-0.8,0.1-1.1,0.1c-6.9,0-12.8-5.6-12.8-12.6c0-5.3,3.7-9.8,7.7-11.7v4.4c-2,1.5-3.7,4.2-3.7,7.2c0,4.8,4,8.6,8.7,8.6
		c0.3,0,0.6,0,0.9,0c0.1,0,0.2,0,0.3,0c0.2,0,0.4,0,0.6-0.1c0.1,0,0.3-0.1,0.4-0.1c0.1,0,0.3-0.1,0.4-0.1c0.2,0,0.3-0.1,0.5-0.2
		c0.1,0,0.2-0.1,0.3-0.1c0.2-0.1,0.3-0.2,0.5-0.2c0.1,0,0.2-0.1,0.3-0.1c0.2-0.1,0.3-0.2,0.5-0.3c0.1,0,0.2-0.1,0.2-0.1
		c0.2-0.1,0.3-0.2,0.5-0.4c0.1,0,0.1-0.1,0.2-0.1c0.2-0.1,0.3-0.3,0.5-0.4c0,0,0.1-0.1,0.1-0.1c0.2-0.2,0.3-0.3,0.5-0.5
		c0,0,0.1-0.1,0.1-0.1c0.1-0.2,0.3-0.4,0.4-0.6c0,0,0.1-0.1,0.1-0.1c0.1-0.2,0.3-0.4,0.4-0.6c0,0,0-0.1,0.1-0.1
		c0.1-0.2,0.2-0.4,0.3-0.7c0,0,0-0.1,0-0.1c0.1-0.2,0.2-0.5,0.3-0.7c0,0,0-0.1,0-0.1c0.1-0.2,0.1-0.5,0.2-0.7c0,0,0-0.1,0-0.1
		c0.1-0.2,0.1-0.5,0.1-0.7c0,0,0-0.1,0-0.1c0-0.2,0-0.5,0-0.7c0-0.1-0.2-0.1-0.2-0.2c0-3.2-1.5-6-4.5-7.5v-0.3v-4
		c5,1.8,8.5,6.4,8.5,11.8c0,2.1-0.4,4.1-1.3,5.8C89.1,75.9,89.2,75.9,89.2,75.9z M112,88.9c0,1.6-0.9,3.1-2.6,3.1h-6.3
		c-4.3-14-12.2-34-24.3-46h30.6c1.7,0,2.6,1.4,2.6,3V88.9z"/>
	<path fill="#7A8DA2" d="M109.4,46H78.8c12.1,12,20,32,24.3,46h6.3c1.7,0,2.6-1.5,2.6-3.1V49C112,47.4,111.1,46,109.4,46z"/>
	<path fill="#FFFFFF" d="M31.7,103h-0.2c-1,0-1.8,0.8-2,1.7c0,0.1-0.1,0.3-0.1,0.4c0,0.1,0,0.4,0,0.5c0,1.2,1,2.3,2.2,2.3H33h88.6
		c1.2,0,2.2-1.3,2.2-2.5s-1-2.5-2.2-2.5h-1.1H31.7z"/>
	<path fill="#DEDED8" d="M87.8,78c-0.1,0.1-0.1,0.2-0.2,0.3C87.7,78.2,87.8,78.1,87.8,78z"/>
	<path fill="#DEDED8" d="M88.6,76.9c-0.1,0.1-0.2,0.2-0.2,0.4C88.5,77.1,88.6,77,88.6,76.9z"/>
	<path fill="#DEDED8" d="M89.2,75.9c-0.1,0.1-0.1,0.2-0.2,0.3C89.1,76.2,89.1,76.1,89.2,75.9z"/>
	<path fill="#DEDED8" d="M86.5,72c0,0,0-0.1,0-0.1C86.5,71.9,86.5,71.9,86.5,72z"/>
	<path fill="#DEDED8" d="M84.2,76.2c0,0-0.1,0.1-0.1,0.1C84.1,76.3,84.1,76.2,84.2,76.2z"/>
	<path fill="#DEDED8" d="M82,58.3v4c1,0.2,0.4,0.3,0.5,0.5c-0.1-0.1-0.1-0.1-0.2-0.2c2.6,1.5,4.4,4.3,4.4,7.5c0,0.1,0,0.1,0,0.2
		c0,0,0-0.1,0-0.1c0.9,1.9,1.8,3.8,2.5,5.8c0.9-1.7,1.2-3.7,1.2-5.8C90.5,64.6,87,60,82,58.3z"/>
	<path fill="#DEDED8" d="M87.1,78.8c-0.1,0.1-0.2,0.2-0.3,0.3C86.9,79,87,78.9,87.1,78.8z"/>
	<path fill="#DEDED8" d="M86.6,71.1c0,0,0-0.1,0-0.1C86.7,71,86.6,71.1,86.6,71.1z"/>
	<path fill="#DEDED8" d="M84.3,81c-0.1,0-0.2,0.1-0.3,0.1C84.1,81.1,84.2,81,84.3,81z"/>
	<path fill="#DEDED8" d="M86,73.5C86,73.5,86,73.5,86,73.5C86,73.5,86,73.5,86,73.5z"/>
	<path fill="#DEDED8" d="M85.6,74.3C85.6,74.3,85.6,74.2,85.6,74.3C85.6,74.2,85.6,74.3,85.6,74.3z"/>
	<path fill="#DEDED8" d="M78.1,78.7c0.3,0,0.6,0,0.9,0C78.7,78.7,78.4,78.7,78.1,78.7z"/>
	<path fill="#DEDED8" d="M82.7,77.4c0.1,0,0.2-0.1,0.2-0.1C82.8,77.3,82.7,77.3,82.7,77.4z"/>
	<path fill="#DEDED8" d="M79.6,82.5c-0.1,0-0.2,0-0.3,0C79.3,82.6,79.4,82.5,79.6,82.5z"/>
	<path fill="#DEDED8" d="M79.3,78.6c0.2,0,0.4,0,0.6-0.1C79.6,78.5,79.5,78.6,79.3,78.6z"/>
	<path fill="#DEDED8" d="M84.6,75.7c0,0,0.1-0.1,0.1-0.1C84.7,75.6,84.7,75.6,84.6,75.7z"/>
	<path fill="#DEDED8" d="M81.9,77.8c0.1,0,0.2-0.1,0.3-0.1C82.1,77.7,82,77.7,81.9,77.8z"/>
	<path fill="#DEDED8" d="M80.2,78.4c0.1,0,0.3-0.1,0.4-0.1C80.5,78.3,80.4,78.4,80.2,78.4z"/>
	<path fill="#DEDED8" d="M85.1,75C85.2,75,85.2,74.9,85.1,75C85.2,74.9,85.2,75,85.1,75z"/>
	<path fill="#DEDED8" d="M81.1,78.1c0.1,0,0.2-0.1,0.3-0.1C81.3,78.1,81.2,78.1,81.1,78.1z"/>
	<path fill="#DEDED8" d="M83.4,76.9c0.1,0,0.1-0.1,0.2-0.1C83.5,76.8,83.4,76.8,83.4,76.9z"/>
	<path fill="#DEDED8" d="M83.1,81.6c-0.1,0-0.2,0.1-0.3,0.1C82.9,81.7,83,81.6,83.1,81.6z"/>
	<path fill="#DEDED8" d="M85.2,80.4c-0.1,0.1-0.2,0.1-0.3,0.2C85,80.5,85.1,80.5,85.2,80.4z"/>
	<path fill="#DEDED8" d="M82,82c-0.1,0-0.2,0.1-0.3,0.1C81.8,82.1,81.9,82,82,82z"/>
	<path fill="#DEDED8" d="M80.7,82.4c-0.1,0-0.1,0-0.2,0C80.5,82.4,80.6,82.4,80.7,82.4z"/>
	<path fill="#DEDED8" d="M86.3,72.8C86.3,72.7,86.3,72.7,86.3,72.8C86.3,72.7,86.3,72.7,86.3,72.8z"/>
	<path fill="#DEDED8" d="M86.2,79.6c-0.1,0.1-0.1,0.1-0.2,0.2C86.1,79.7,86.2,79.7,86.2,79.6z"/>
	<path fill="#DEDED8" d="M80,55.2c0-1.1-0.8-2-1.8-2c-0.6,0-1.1,0.2-1.5,0.6c0.9,1.3,2.3,3,3.3,5V55.2z"/>
	<path fill="#DEDED8" d="M76.6,54.1c0-0.1,0.1-0.1,0.1-0.2C76.7,54,76.7,54,76.6,54.1z"/>
	<path fill="#DEDED8" d="M76.5,54.4c0-0.1,0.1-0.1,0.1-0.2C76.5,54.3,76.5,54.3,76.5,54.4z"/>
	<path fill="#DEDED8" d="M76.3,54.8c0-0.1,0-0.1,0-0.2C76.4,54.7,76.4,54.7,76.3,54.8z"/>
	<path fill="#FFFFFF" d="M82.4,62.3v0.3c0.1,0.1,0.2,0.1,0.3,0.2C82.6,62.6,82.5,62.5,82.4,62.3z"/>
	<path fill="#FFFFFF" d="M86.7,70.3c0,0.2,0,0.5,0,0.7c0,0,0,0.1,0,0.1c0,0.2-0.1,0.5-0.1,0.7c0,0,0,0.1,0,0.1
		c-0.1,0.2-0.1,0.5-0.2,0.7c0,0,0,0.1,0,0.1c-0.1,0.2-0.2,0.5-0.3,0.7c0,0,0,0.1,0,0.1c-0.1,0.2-0.2,0.4-0.3,0.7c0,0,0,0.1-0.1,0.1
		c-0.1,0.2-0.2,0.4-0.4,0.6c0,0-0.1,0.1-0.1,0.1c-0.1,0.2-0.3,0.4-0.4,0.6c0,0-0.1,0.1-0.1,0.1c-0.1,0.2-0.3,0.3-0.5,0.5
		c0,0-0.1,0.1-0.1,0.1c-0.2,0.1-0.3,0.3-0.5,0.4c-0.1,0-0.1,0.1-0.2,0.1c-0.2,0.1-0.3,0.2-0.5,0.4c-0.1,0-0.2,0.1-0.2,0.1
		c-0.2,0.1-0.3,0.2-0.5,0.3c-0.1,0-0.2,0.1-0.3,0.1c-0.2,0.1-0.3,0.2-0.5,0.2c-0.1,0-0.2,0.1-0.3,0.1c-0.2,0.1-0.3,0.1-0.5,0.2
		c-0.1,0-0.3,0.1-0.4,0.1c-0.1,0-0.3,0.1-0.4,0.1c-0.2,0-0.4,0.1-0.6,0.1c-0.1,0-0.2,0-0.3,0c-0.3,0-0.6,0-0.9,0
		c-4.8,0-8.8-3.9-8.8-8.6c0-3,1.7-5.7,3.7-7.2v-4.4c-4,1.9-7.7,6.4-7.7,11.7c0,6.9,5.7,12.6,12.7,12.6c0.4,0,0.8,0,1.2-0.1
		c0.1,0,0.2,0,0.3,0c0.3,0,0.6-0.1,0.9-0.1c0.1,0,0.1,0,0.2,0c0.4-0.1,0.7-0.2,1.1-0.3c0.1,0,0.2-0.1,0.3-0.1
		c0.3-0.1,0.5-0.2,0.8-0.3c0.1,0,0.2-0.1,0.3-0.1c0.3-0.1,0.6-0.3,0.9-0.5c0.1,0,0.2-0.1,0.3-0.1c0.2-0.1,0.5-0.3,0.7-0.4
		c0.1-0.1,0.2-0.1,0.3-0.2c0.3-0.2,0.5-0.4,0.8-0.6c0.1-0.1,0.1-0.1,0.2-0.2c0.2-0.2,0.4-0.3,0.6-0.5c0.1-0.1,0.2-0.2,0.3-0.3
		c0.2-0.2,0.3-0.4,0.5-0.6c0.1-0.1,0.1-0.2,0.2-0.3c0.2-0.2,0.4-0.5,0.6-0.8c0.1-0.1,0.2-0.2,0.2-0.4c0.1-0.2,0.2-0.4,0.4-0.6
		c0.1-0.1,0.1-0.2,0.2-0.3c0,0,0,0,0,0c0,0,0,0,0,0c-0.7-1.9-1.6-3.8-2.5-5.8C86.7,70.2,86.7,70.2,86.7,70.3z"/>
	<path fill="#FFFFFF" d="M78,70.8c1.1,0,2-0.9,2-2v-10c-1-2-2-3.7-3-5c0,0,0,0,0,0c0,0-0.1,0.1-0.2,0.1c0,0.1-0.1,0.1-0.2,0.2
		c0,0-0.1,0.1-0.1,0.1c0,0.1-0.1,0.1-0.1,0.2c0,0.1,0,0.1-0.1,0.2c0,0.1-0.2,0.1-0.2,0.2c0,0.1-0.2,0.3-0.2,0.4v13.6
		C76,69.9,76.9,70.8,78,70.8z"/>
</g>
</svg>
